<svg width="301.04375px" height="122px" xmlns="http://www.w3.org/2000/svg" viewBox="99.478125 14 301.04375 122" style="background: rgba(0, 0, 0, 0);" preserveAspectRatio="xMidYMid"><defs><linearGradient id="editing-gradient-gradient" x1="0" x2="1" y1="0.5" y2="0.5" gradientUnits="objectBoundingBox"><stop offset="0" stop-color="#00a6fb"></stop><stop offset="1" stop-color="#00ffff"></stop></linearGradient></defs><g><g transform="translate(146.9249883890152, 99)"><path d="M34.50-13.25L34.50-13.25L34.50-13.25Q36.16-12.03 36.16-9.44L36.16-9.44L36.16-9.44Q36.16-6.85 35.04-5.02L35.04-5.02L35.04-5.02Q33.92-3.20 31.74-1.79L31.74-1.79L31.74-1.79Q27.07 1.22 18.91 1.22L18.91 1.22L18.91 1.22Q10.75 1.22 6.30-3.04L6.30-3.04L6.30-3.04Q1.86-7.30 1.86-14.85L1.86-14.85L1.86-14.85Q1.86-25.54 7.42-33.66L7.42-33.66L7.42-33.66Q11.65-39.68 19.20-42.24L19.20-42.24L19.20-42.24Q23.10-43.52 26.94-43.52L26.94-43.52L26.94-43.52Q30.78-43.52 33.15-43.01L33.15-43.01L33.15-43.01Q35.52-42.50 37.31-41.47L37.31-41.47L37.31-41.47Q41.22-39.23 41.22-35.65L41.22-35.65L41.22-35.65Q41.22-32.38 38.14-29.95L38.14-29.95L38.14-29.95Q35.33-27.78 33.02-27.78L33.02-27.78L33.02-27.78Q30.72-27.78 29.76-28.10L29.76-28.10L29.76-28.10Q30.02-30.40 30.02-31.90L30.02-31.90L30.02-31.90Q30.02-33.41 29.95-34.50L29.95-34.50L29.95-34.50Q29.89-35.58 29.57-36.61L29.57-36.61L29.57-36.61Q28.93-38.98 26.98-38.98L26.98-38.98L26.98-38.98Q25.02-38.98 23.07-37.15L23.07-37.15L23.07-37.15Q21.12-35.33 19.46-32.26L19.46-32.26L19.46-32.26Q15.68-25.28 15.68-17.02L15.68-17.02L15.68-17.02Q15.68-13.06 17.92-10.78L17.92-10.78L17.92-10.78Q20.16-8.51 24.96-8.51L24.96-8.51L24.96-8.51Q28.54-8.51 31.94-10.88L31.94-10.88L31.94-10.88Q33.41-11.90 34.50-13.25ZM56.83-3.52L56.83-3.52L56.83-3.52Q54.85 1.28 48.51 1.28L48.51 1.28L48.51 1.28Q45.25 1.28 43.20-0.96L43.20-0.96L43.20-0.96Q41.47-2.94 41.47-4.93L41.47-4.93L41.47-4.93Q41.47-10.11 43.84-20.22L43.84-20.22L46.21-32.64L59.20-33.92L55.30-13.70L55.30-13.70Q54.21-8.96 54.21-7.30L54.21-7.30L54.21-7.30Q54.21-3.65 56.83-3.52ZM47.36-41.54L47.36-41.54L47.36-41.54Q47.36-44.03 49.44-45.38L49.44-45.38L49.44-45.38Q51.52-46.72 54.53-46.72L54.53-46.72L54.53-46.72Q57.54-46.72 59.36-45.38L59.36-45.38L59.36-45.38Q61.18-44.03 61.18-41.54L61.18-41.54L61.18-41.54Q61.18-39.04 59.17-37.76L59.17-37.76L59.17-37.76Q57.15-36.48 54.14-36.48L54.14-36.48L54.14-36.48Q51.14-36.48 49.25-37.76L49.25-37.76L49.25-37.76Q47.36-39.04 47.36-41.54ZM89.34 1.28L89.34 1.28L89.34 1.28Q81.60 1.28 81.60-4.74L81.60-4.74L81.60-4.74Q81.66-6.40 82.18-9.22L82.18-9.22L83.33-15.10L83.33-15.10Q85.06-23.42 85.06-25.28L85.06-25.28L85.06-25.28Q85.06-28.99 82.88-28.99L82.88-28.99L82.88-28.99Q79.23-28.99 77.31-19.46L77.31-19.46L73.54 0L60.67 1.28L67.33-32.70L77.82-33.92L76.80-27.65L76.80-27.65Q79.81-33.92 89.02-33.92L89.02-33.92L89.02-33.92Q93.50-33.92 95.39-32.03L95.39-32.03L95.39-32.03Q97.28-30.14 97.28-25.92L97.28-25.92L97.28-25.92Q97.28-21.95 95.23-12.67L95.23-12.67L95.23-12.67Q94.27-8.51 94.27-6.94L94.27-6.94L94.27-6.94Q94.27-5.38 95.14-4.48L95.14-4.48L95.14-4.48Q96-3.58 97.28-3.46L97.28-3.46L97.28-3.46Q96.64-1.28 94.43 0L94.43 0L94.43 0Q92.22 1.28 89.34 1.28ZM128.32-10.82L128.32-10.82L128.32-10.82Q129.92-9.73 129.92-7.33L129.92-7.33L129.92-7.33Q129.92-4.93 128.70-3.39L128.70-3.39L128.70-3.39Q127.49-1.86 125.50-0.83L125.50-0.83L125.50-0.83Q121.41 1.28 116.99 1.28L116.99 1.28L116.99 1.28Q112.58 1.28 109.98 0.32L109.98 0.32L109.98 0.32Q107.39-0.64 105.66-2.43L105.66-2.43L105.66-2.43Q102.27-5.82 102.27-12.03L102.27-12.03L102.27-12.03Q102.27-21.70 107.52-27.58L107.52-27.58L107.52-27.58Q113.15-33.92 122.94-33.92L122.94-33.92L122.94-33.92Q129.02-33.92 132.03-31.36L132.03-31.36L132.03-31.36Q134.27-29.44 134.27-26.30L134.27-26.30L134.27-26.30Q134.27-15.04 114.82-15.04L114.82-15.04L114.82-15.04Q114.56-13.38 114.56-11.97L114.56-11.97L114.56-11.97Q114.56-9.02 115.87-7.90L115.87-7.90L115.87-7.90Q117.18-6.78 119.62-6.78L119.62-6.78L119.62-6.78Q122.05-6.78 124.64-7.90L124.64-7.90L124.64-7.90Q127.23-9.02 128.32-10.82ZM115.26-17.79L115.26-17.79L115.26-17.79Q119.81-17.79 122.43-20.61L122.43-20.61L122.43-20.61Q125.06-23.30 125.06-27.58L125.06-27.58L125.06-27.58Q125.06-29.06 124.51-29.86L124.51-29.86L124.51-29.86Q123.97-30.66 122.88-30.66L122.88-30.66L122.88-30.66Q121.79-30.66 120.86-30.24L120.86-30.24L120.86-30.24Q119.94-29.82 118.98-28.42L118.98-28.42L118.98-28.42Q116.61-25.22 115.26-17.79ZM161.47-42.69L161.47-42.69L161.47-42.69Q177.15-42.69 177.15-31.62L177.15-31.62L177.15-31.62Q177.15-25.54 173.25-21.89L173.25-21.89L173.25-21.89Q169.41-18.24 162.69-18.24L162.69-18.24L162.69-18.24Q159.55-18.24 157.12-20.03L157.12-20.03L157.12-20.03Q155.97-20.80 155.20-21.82L155.20-21.82L155.20-21.82Q159.87-21.82 162.34-24.67L162.34-24.67L162.34-24.67Q164.80-27.52 164.80-33.09L164.80-33.09L164.80-33.09Q164.80-38.66 159.30-38.66L159.30-38.66L157.76-38.66L157.76-38.66Q157.38-38.66 157.06-38.59L157.06-38.59L149.70 0L135.81 0L143.68-41.92L143.68-41.92Q150.53-42.56 154.50-42.62L154.50-42.62L154.50-42.62Q158.46-42.69 161.47-42.69ZM186.18-12.16L177.02-12.16L177.02-12.16Q176.77-12.93 176.77-14.50L176.77-14.50L176.77-14.50Q176.77-16.06 178.08-17.38L178.08-17.38L178.08-17.38Q179.39-18.69 181.44-18.69L181.44-18.69L187.39-18.69L188.67-25.54L188.67-25.54Q189.12-27.52 190.50-28.67L190.50-28.67L190.50-28.67Q191.87-29.82 193.60-29.82L193.60-29.82L193.60-29.82Q195.33-29.82 196.48-29.38L196.48-29.38L194.43-18.69L203.97-18.69L204.16-17.66L204.16-17.66Q204.29-17.22 204.29-16.77L204.29-16.77L204.29-16.77Q204.29-14.59 202.82-13.38L202.82-13.38L202.82-13.38Q201.34-12.16 198.91-12.16L198.91-12.16L193.15-12.16L191.62-4.29L191.62-4.29Q190.78-0.38 186.69-0.38L186.69-0.38L186.69-0.38Q185.22-0.38 183.87-0.83L183.87-0.83L186.18-12.16Z" fill="url(#editing-gradient-gradient)"></path></g></g><style>text {
  font-size: 64px;
  font-family: Arial Black;
  dominant-baseline: central;
  text-anchor: middle;
}</style></svg>